<?xml version="1.0" encoding="utf-8"?>
<!-- Generator: Adobe Illustrator 16.0.0, SVG Export Plug-In . SVG Version: 6.00 Build 0)  -->
<!DOCTYPE svg PUBLIC "-//W3C//DTD SVG 1.1//EN" "http://www.w3.org/Graphics/SVG/1.1/DTD/svg11.dtd">
<svg version="1.1" xmlns="http://www.w3.org/2000/svg" xmlns:xlink="http://www.w3.org/1999/xlink" x="0px" y="0px"
	 width="694.07px" height="145.162px" viewBox="0 0 694.07 145.162" enable-background="new 0 0 694.07 145.162"
	 xml:space="preserve">
<g id="Layer_2">
	<rect x="142.438" y="40.552" fill="none" width="302.128" height="81.882"/>
	<text transform="matrix(1 0 0 1 142.4375 105.9141)"><tspan x="0" y="0" stroke="#000000" stroke-width="3" stroke-miterlimit="10" font-family="'Baskerville-Bold'" font-size="97">F</tspan><tspan x="56.599" y="0" font-family="'Baskerville-Bold'" font-size="97">alcon</tspan></text>
	<text transform="matrix(1 0 0 1 446.5654 105.3887)"><tspan x="0" y="0" stroke="#000000" stroke-width="3" stroke-miterlimit="10" font-family="'Baskerville-Bold'" font-size="97">F</tspan><tspan x="56.599" y="0" font-family="'Baskerville-Bold'" font-size="97">orm</tspan></text>
</g>
<g id="Layer_4" display="none">
	
		<line display="inline" stroke="#000000" stroke-width="4" stroke-miterlimit="10" x1="142.438" y1="123.389" x2="693.553" y2="122.68"/>
</g>
<g id="Layer_3">
	<g>
		<path fill-rule="evenodd" clip-rule="evenodd" d="M137.002,1.12c-0.343,0.161-0.722,0.269-1.023,0.491
			c-1.667,1.23-3.305,2.506-4.976,3.73c-0.848,0.623-1.753,1.153-2.616,1.755c-1.807,1.263-3.591,2.561-5.404,3.815
			c-1.54,1.065-3.105,2.09-4.661,3.133c-1.748,1.173-3.479,2.375-5.251,3.508c-1.688,1.078-3.427,2.063-5.125,3.122
			c-1.73,1.078-3.423,2.22-5.161,3.287c-1.277,0.786-2.611,1.475-3.899,2.248c-1.214,0.73-2.374,1.565-3.605,2.263
			c-1.85,1.048-3.751,1.994-5.608,3.028c-1.985,1.106-3.93,2.297-5.925,3.387c-1.371,0.749-2.805,1.366-4.193,2.083
			c-1.295,0.67-2.551,1.43-3.851,2.09c-1.363,0.692-2.763,1.298-4.135,1.965c-2.391,1.162-4.758,2.375-7.16,3.504
			c-1.533,0.72-3.117,1.317-4.669,1.99c-2.549,1.103-5.071,2.28-7.644,3.318c-2.453,0.991-4.945,1.869-7.438,2.744
			c-0.818,0.287-1.062,0.731-0.886,1.627c0.287,1.457,0.575,2.928,0.675,4.407c0.388,5.743,0.779,11.494,0.111,17.242
			c-0.444,3.809-0.805,7.641-1.506,11.398c-0.613,3.297-1.625,6.514-2.514,9.75c-0.204,0.742-0.618,1.42-0.936,2.127
			c-0.083-0.023-0.167-0.047-0.251-0.07c0.049-0.636,0.022-1.291,0.161-1.904c0.583-2.571,1.268-5.118,1.81-7.699
			c0.37-1.75,0.609-3.534,0.829-5.313c0.381-3.089,0.869-6.178,1.005-9.283c0.172-3.876,0.06-7.767,0.015-11.651
			c-0.012-1.172-0.174-2.347-0.319-3.512c-0.293-2.334-0.613-4.664-0.938-6.994c-0.111-0.801,0.176-1.203,0.927-1.41
			c0.938-0.258,1.852-0.625,2.763-0.983c2.303-0.905,4.605-1.813,6.897-2.755c2.327-0.956,4.65-1.926,6.955-2.939
			c1.612-0.708,3.181-1.528,4.788-2.25c1.643-0.737,3.326-1.375,4.959-2.132c1.302-0.604,2.546-1.346,3.837-1.98
			c2.187-1.074,4.413-2.057,6.577-3.177c2.202-1.139,4.343-2.413,6.527-3.594c1.911-1.036,3.882-1.956,5.761-3.054
			c2.409-1.408,4.756-2.935,7.117-4.434c0.323-0.206,0.615-0.513,0.833-0.838c0.539-0.805,1.051-1.633,1.532-2.478
			c1.171-2.057,2.429-4.07,3.448-6.21c1.271-2.669,2.338-5.447,3.49-8.179c0.776-1.837,1.556-3.672,2.308-5.519
			c0.09-0.222,0.029-0.513,0.04-0.772c-0.245,0.084-0.536,0.106-0.725,0.264c-2.087,1.732-4.144,3.501-6.233,5.228
			c-1.224,1.011-2.493,1.96-3.738,2.942c-2.155,1.697-4.275,3.443-6.468,5.083c-2.054,1.538-4.187,2.956-6.275,4.444
			c-1.551,1.104-3.05,2.291-4.631,3.343c-2.437,1.623-4.923,3.165-7.395,4.734c-0.748,0.474-1.517,0.911-2.266,1.385
			c-1.299,0.824-2.569,1.701-3.89,2.486c-1.726,1.026-3.492,1.976-5.233,2.972c-1.95,1.113-3.874,2.276-5.841,3.352
			c-1.368,0.749-2.802,1.363-4.187,2.081c-2.159,1.12-4.288,2.308-6.456,3.407c-1.492,0.755-3.036,1.392-4.546,2.107
			c-2.299,1.087-4.573,2.237-6.892,3.281c-1.702,0.766-3.465,1.378-5.183,2.109c-1.772,0.753-3.516,1.581-5.281,2.347
			c-1.166,0.507-2.345,0.985-3.531,1.438c-0.552,0.211-0.648,0.463-0.297,0.983c1.271,1.883,2.586,3.737,3.754,5.691
			c1.232,2.06,2.366,4.192,3.446,6.348c0.607,1.21,1.11,2.5,1.497,3.808c0.592,2,1.092,4.034,1.54,6.075
			c0.412,1.885,0.887,3.786,1.004,5.701c0.18,2.937,0.052,5.894,0.103,8.84c0.031,1.793-0.764,3.32-1.607,4.683
			c-0.963,1.558-2.256,2.945-3.611,4.148c-1.366,1.215-2.96,2.158-4.496,3.145c-1.381,0.888-2.801,1.712-4.239,2.492
			c-1.153,0.624-2.384,1.089-3.535,1.717c-2.123,1.159-4.237,2.341-6.308,3.601c-1.726,1.051-3.393,2.114-4.232,4.29
			c-0.386,1.001-1.481,1.718-2.307,2.499c-1.018,0.962-1.954,2.016-2.397,3.377c-0.58,1.783,0.06,3.351,1.203,4.665
			c0.609,0.698,1.363,1.255,2.2,2.011c0.116-0.846,0.108-1.373,0.264-1.839c0.764-2.289,2.791-3.021,4.616-3.759
			c2.02-0.816,4.188-1.245,6.312-1.734c1.813-0.417,3.646-0.849,5.489-0.987c5.814-0.437,11.637-0.696,17.456-0.042
			c0.666,0.074,1.304,0.408,1.968,0.505c0.979,0.143,1.975,0.258,2.959,0.222c0.38-0.014,0.722-0.531,1.123-0.722
			c1.497-0.707,3.019-1.359,4.521-2.06c2.358-1.098,4.682-2.288,7.072-3.306c1.584-0.674,3.254-1.125,4.891-1.66
			c0.624-0.203,1.261-0.363,1.89-0.55c2.145-0.638,4.265-1.405,6.44-1.879c1.849-0.403,3.76-0.552,5.651-0.667
			c5.038-0.306,10.048-0.217,14.859,1.732c0.455,0.186,0.969,0.218,1.402,0.438c1.205,0.609,2.4,1.25,3.567,1.938
			c1.181,0.696,2.376,1.389,3.471,2.223c1.455,1.108,2.857,2.308,4.212,3.553c1.181,1.084,2.264,2.29,3.393,3.438
			c0.697,0.709,1.402,1.409,2.188,2.197c0.392-1.756,0.654-3.29,1.091-4.767c0.292-0.99-0.02-1.54-0.738-2.061
			c-1.43-1.042-2.832-2.122-4.254-3.176c-0.266-0.197-0.567-0.346-0.851-0.517c0.042-0.125,0.083-0.248,0.123-0.372
			c0.36,0.097,0.752,0.13,1.077,0.303c1.437,0.758,2.848,1.571,4.285,2.329c0.471,0.248,0.97,0.15,1.094-0.461
			c0.38-1.855,0.713-3.724,1.024-5.594c0.035-0.21-0.125-0.593-0.294-0.683c-1.774-0.927-3.529-1.911-5.367-2.674
			c-1.675-0.694-3.445-1.136-5.172-1.688c-0.006-0.116-0.012-0.233-0.017-0.35c1.073,0.076,2.169,0.03,3.214,0.255
			c2.447,0.523,4.869,1.178,7.302,1.781c0.977,0.241,1.29,0.022,1.466-0.991c0.195-1.12,0.461-2.229,0.595-3.357
			c0.042-0.357-0.146-0.972-0.402-1.104c-1.799-0.955-3.576-2.068-5.491-2.644c-2.108-0.633-3.361-0.911-5.242-1.258
			c0,0-4.048-0.594-4.333-0.655c-1.101-0.237,0,0-1.11-0.152c-1.1-0.15-2.223-0.113-3.333-0.187
			c-0.313-0.021-0.619-0.142-0.928-0.216c2.715-0.486,5.382-0.76,8.054-0.949c0.784,0.033,6.626,0.548,7.379,0.747
			c2.008,0.528,3.994,1.154,6.143,1.787c0.18-0.473,0.462-1.051,0.617-1.667c0.354-1.4,0.619-2.825,0.966-4.227
			c0.61-2.469,1.26-4.926,1.88-7.392c0.146-0.586-0.076-0.921-0.675-0.981c-3.61-0.368-7.214-0.858-10.835-1.081
			c-2.012-0.127-4.047,0.178-6.073,0.297c-6.166,0.367-12.269,1.103-18.251,2.869c-2.653,0.783-5.272,1.593-7.811,2.737
			c-1.803,0.812-3.535,1.722-5.2,2.811c-1.832,1.194-3.566,2.485-4.845,4.36c-0.286,0.418-0.622,0.797-0.935,1.192
			c-0.118-0.08-0.236-0.161-0.353-0.241c0.12-0.393,0.167-0.837,0.375-1.17c0.671-1.077,1.318-2.193,2.13-3.147
			c0.943-1.108,1.97-2.179,3.112-3.043c0.976-0.736,2.198-1.09,3.25-1.727c2.242-1.353,4.468-2.742,6.659-4.189
			c2.028-1.338,4.008-2.763,5.998-4.167c0.236-0.167,0.404-0.442,0.799-0.888c-1.672-0.085-3.052-0.154-4.682-0.236
			c1.998-0.415,3.728-0.86,5.483-1.11c1.632-0.233,2.875-1.203,4.111-2.172c1.537-1.203,2.985-2.534,4.449-3.84
			c0.237-0.213,0.354-0.578,0.527-0.872c-0.292-0.087-0.586-0.247-0.878-0.246c-2.716,0.019-5.432,0.073-8.148,0.092
			c-0.586,0.004-1.175-0.102-1.764-0.155c2.534-0.487,5.048-0.886,7.578-1.048c2.163-0.139,4.106-0.973,5.858-2.1
			c1.987-1.279,3.782-2.926,5.541-4.558c1.59-1.477,3.023-3.143,4.509-4.742c0.159-0.172,0.199-0.467,0.378-0.913
			c-0.594,0.072-1.011,0.072-1.401,0.18c-2.361,0.639-4.699,1.392-7.079,1.936c-2.638,0.604-5.302,1.099-7.974,1.51
			c-3.187,0.49-6.396,0.841-9.594,1.259c-0.483,0.062-0.957,0.205-1.439,0.239c-1.449,0.101-2.9,0.167-4.35,0.246
			c2.017-0.447,3.998-0.916,6-1.201c2.328-0.332,4.684-0.434,7.011-0.771c1.664-0.243,3.301-0.694,4.94-1.091
			c1.105-0.267,2.202-0.568,3.287-0.909c1.768-0.556,3.566-1.043,5.272-1.771c1.446-0.618,2.823-1.467,4.155-2.34
			c1.593-1.042,3.175-2.125,4.631-3.363c1.163-0.987,2.146-2.215,3.171-3.373c1.1-1.237,2.234-2.454,3.214-3.792
			c1.386-1.89,2.662-3.871,3.947-5.839c0.519-0.792,0.945-1.651,1.434-2.518c-0.211-0.058-0.289-0.108-0.33-0.086
			c-2.569,1.408-5.125,2.847-7.708,4.227c-2.117,1.13-4.249,2.237-6.41,3.269c-2.147,1.022-4.334,1.947-6.513,2.889
			c-0.6,0.26-1.247,0.395-1.853,0.641c-1.955,0.793-3.877,1.68-5.855,2.399c-1.741,0.632-3.545,1.065-5.309,1.627
			c-1.857,0.59-3.685,1.283-5.55,1.833c-1.686,0.497-3.398,0.898-5.113,1.272c-0.629,0.139-1.343,0.412-2.185-0.321
			c0.605-0.105,0.951-0.15,1.29-0.227c1.049-0.241,2.112-0.436,3.139-0.758c1.915-0.599,3.798-1.314,5.713-1.908
			c1.831-0.568,3.69-1.026,5.529-1.563c0.656-0.19,1.296-0.451,1.932-0.709c1.505-0.606,3-1.236,4.503-1.845
			c1.441-0.583,2.911-1.093,4.324-1.744c1.54-0.71,3.044-1.512,4.532-2.335c1.855-1.025,3.764-1.98,5.498-3.208
			c2.115-1.5,4.1-3.217,6.095-4.901c3.582-3.021,6.53-6.692,9.222-10.571c1.582-2.276,2.888-4.775,4.242-7.221
			c1.123-2.027,2.175-4.101,3.182-6.195c0.846-1.758,1.59-3.571,2.36-5.369c0.306-0.717,0.558-1.459,0.834-2.19
			C137.165,1.253,137.084,1.187,137.002,1.12z M9.878,114.552c-0.512,0.321-1.157,0.402-1.746,0.583
			c-0.018-0.273-0.141-0.718-0.038-0.789c0.618-0.418,1.287-0.749,1.939-1.11c0.119,0.053,0.236,0.105,0.354,0.157
			C10.225,113.791,10.163,114.372,9.878,114.552z"/>
		<path fill-rule="evenodd" clip-rule="evenodd" fill="#FFFFFF" d="M10.387,113.393c-0.163,0.4-0.224,0.979-0.509,1.159
			c-0.511,0.321-1.156,0.402-1.745,0.583c-0.019-0.272-0.142-0.718-0.038-0.789c0.617-0.418,1.287-0.749,1.938-1.11
			C10.151,113.288,10.269,113.341,10.387,113.393z"/>
	</g>
</g>
<g id="Layer_5" display="none">
	
		<line display="inline" fill="#1A1A1A" stroke="#000000" stroke-width="4" stroke-miterlimit="10" x1="160.437" y1="26.434" x2="705.827" y2="25.725"/>
</g>
</svg>
